# xmcd CD database file
#
# Track frame offsets:
#	150
#	13262
#	39717
#	56807
#	75405
#	86604
#	102417
#	120590
#	140927
#	162115
#	175932
#	190602
#
# Disc length: 2744 seconds
#
# Revision: 0
# Processed by: cddbd v1.5.1PL0 Copyright (c) Steve Scherf et al.
# Submitted via: cdripper 1.0.7
#
DISCID=9e0ab60c
DTITLE=Various Artist - Black and Tan Records Presents
DYEAR=2001
DGENRE=Blues
TTITLE0=Erskine Oglesby - Back At BB's
TTITLE1=Boo Boo Davis - Ice Storm
TTITLE2=Dave MacKenzie - The Ballad Of Jetlag Johnson
TTITLE3=Big George Jackson - Rubbish Truck
TTITLE4=Percy Strother - Blow Wind Blow
TTITLE5=Roscoe Chenier - Tomcat Blues
TTITLE6=Erskine Oglesby - Two Shots Of Jack
TTITLE7=Boo Boo Davis - Talkin' 'bout My Dogs
TTITLE8=Dave MacKenzie - Girlfriend Blues
TTITLE9=Big George Jackson - Ela May
TTITLE10=Percy Strother - Howlin' For My Baby
TTITLE11=Roscoe Chenier - 5:19 Blues
EXTD=YEAR: 2001
EXTT0=
EXTT1=
EXTT2=
EXTT3=
EXTT4=
EXTT5=
EXTT6=
EXTT7=
EXTT8=
EXTT9=
EXTT10=
EXTT11=
PLAYORDER=
